<svg  viewBox="0 0 20 20" fill="none" xmlns="http://www.w3.org/2000/svg">
<path d="M-4.68893e-06 10C-4.51602e-06 11.9778 0.586484 13.9112 1.6853 15.5557C2.78411 17.2002 4.3459 18.4819 6.17316 19.2388C8.00042 19.9957 10.0111 20.1937 11.9509 19.8078C13.8907 19.422 15.6725 18.4696 17.0711 17.0711C18.4696 15.6725 19.422 13.8907 19.8078 11.9509C20.1937 10.0111 19.9957 8.00042 19.2388 6.17316C18.4819 4.3459 17.2002 2.78411 15.5557 1.6853C13.9112 0.586485 11.9778 -3.11337e-06 9.99999 -2.94047e-06C7.34876 0.00302044 4.80698 1.05756 2.93227 2.93227C1.05756 4.80698 0.00301823 7.34876 -4.68893e-06 10ZM12.44 4.70285C12.5728 4.83553 12.6782 4.99308 12.7501 5.16651C12.822 5.33994 12.859 5.52583 12.859 5.71357C12.859 5.9013 12.822 6.0872 12.7501 6.26063C12.6782 6.43405 12.5728 6.59161 12.44 6.72428L9.16285 10L12.4386 13.2743C12.7066 13.5423 12.8572 13.9059 12.8572 14.285C12.8572 14.6641 12.7066 15.0277 12.4386 15.2957C12.1705 15.5638 11.8069 15.7144 11.4279 15.7144C11.0488 15.7144 10.6852 15.5638 10.4171 15.2957L6.13142 11.01C5.86361 10.7421 5.71316 10.3788 5.71316 10C5.71316 9.62119 5.86361 9.25789 6.13142 8.99L10.4171 4.70428C10.5497 4.57115 10.7073 4.46549 10.8808 4.39335C11.0543 4.32121 11.2404 4.284 11.4283 4.28387C11.6162 4.28374 11.8023 4.32068 11.9759 4.39257C12.1495 4.46447 12.3072 4.56991 12.44 4.70285Z" fill="#00B3B5"/>
</svg>
