<svg  viewBox="0 0 20 20" fill="none" xmlns="http://www.w3.org/2000/svg">
<path d="M20 10C20 8.02219 19.4135 6.08879 18.3147 4.4443C17.2159 2.79981 15.6541 1.51809 13.8268 0.761209C11.9996 0.00433292 9.98891 -0.193701 8.0491 0.192152C6.10929 0.578004 4.32746 1.53041 2.92894 2.92894C1.53041 4.32746 0.578004 6.10929 0.192152 8.0491C-0.193701 9.98891 0.00433292 11.9996 0.761209 13.8268C1.51809 15.6541 2.79981 17.2159 4.4443 18.3147C6.08879 19.4135 8.02219 20 10 20C12.6512 19.997 15.193 18.9424 17.0677 17.0677C18.9424 15.193 19.997 12.6512 20 10ZM7.56 15.2971C7.42718 15.1645 7.32181 15.0069 7.24992 14.8335C7.17803 14.6601 7.14102 14.4742 7.14102 14.2864C7.14102 14.0987 7.17803 13.9128 7.24992 13.7394C7.32181 13.5659 7.42718 13.4084 7.56 13.2757L10.8371 10L7.56143 6.72572C7.29338 6.45766 7.14278 6.0941 7.14278 5.71501C7.14278 5.33591 7.29338 4.97235 7.56143 4.70429C7.82949 4.43623 8.19306 4.28564 8.57215 4.28564C8.95124 4.28564 9.3148 4.43623 9.58286 4.70429L13.8686 8.99001C14.1364 9.2579 14.2868 9.6212 14.2868 10C14.2868 10.3788 14.1364 10.7421 13.8686 11.01L9.58286 15.2957C9.45025 15.4289 9.29268 15.5345 9.11918 15.6067C8.94567 15.6788 8.75964 15.716 8.57173 15.7161C8.38382 15.7163 8.19774 15.6793 8.02413 15.6074C7.85052 15.5355 7.6928 15.4301 7.56 15.2971Z" fill="white"/>
</svg>
