<svg width="133" height="74" viewBox="0 0 133 74" fill="none" xmlns="http://www.w3.org/2000/svg">
<path d="M111.794 21.5836C114.137 23.5497 114.415 27.0085 112.411 29.3107C110.411 31.6116 106.886 31.886 104.542 29.9205C102.198 27.9564 101.923 24.4976 103.923 22.1986C105.928 19.8951 109.449 19.6221 111.794 21.5836Z" fill="#00B3B5"/>
<path d="M69 45.0025C69.4416 45.8538 70.3242 46.483 70.9228 46.6839C72.3029 47.1469 75.7306 47.3755 75.8522 49.9804L78.145 67.4148C79.0105 71.2297 84.9302 66.4514 87.3177 67.333C89.2898 68.06 88.5959 71.3102 89.0914 73.8797H123.935C122.76 67.2036 122.196 59.1384 122.147 58.3573C121.696 51.3186 125.575 44.4802 129.774 37.4621C134.947 28.8168 133.655 17.258 127.642 10.3024C121.453 3.14076 111.32 -2.18557 97.4807 0.889418C89.7834 2.59982 84.0332 4.33534 80.2788 6.49652H88.3613C89.0539 6.49652 89.6151 7.04648 89.6151 7.72523V7.79349C89.6151 8.47224 89.0539 9.0222 88.3613 9.0222H78.814C78.3198 9.0222 77.894 8.74143 77.6896 8.33508C76.2702 9.61595 75.4139 11.0469 75.13 12.6864L73.4378 28.9037C73.4457 29.2881 73.5127 29.6314 73.6534 29.9489C74.1245 31.0108 75.5433 32.6246 74.6089 34.1695C72.387 37.8434 70.4457 40.038 69.2031 42.4781H77.3006C77.9932 42.4781 78.5538 43.0287 78.5538 43.7068V43.7744C78.5538 44.4538 77.9926 45.0031 77.3006 45.0031H69V45.0025ZM118.315 10.8962L118.275 10.9522C118.078 11.2317 117.787 11.4075 117.483 11.4764C117.177 11.5453 116.858 11.5086 116.582 11.3482C115.309 10.6096 113.939 10.0332 112.515 9.64235C111.092 9.25081 109.616 9.04345 108.134 9.02413C108.053 9.02349 107.974 9.01447 107.899 8.99773C107.818 8.98098 107.739 8.95716 107.665 8.92625C107.514 8.86378 107.379 8.77427 107.266 8.66286C107.039 8.44004 106.898 8.13351 106.898 7.79414V7.72587C106.898 7.3865 107.039 7.07932 107.266 6.85715C107.379 6.74639 107.515 6.65623 107.665 6.59376C107.739 6.56285 107.817 6.53902 107.9 6.52228C107.987 6.50683 108.078 6.49845 108.169 6.4991C109.871 6.52164 111.572 6.76055 113.211 7.21134C114.852 7.66148 116.431 8.32606 117.897 9.17675C118.216 9.36222 118.426 9.65652 118.499 9.97013C118.572 10.2844 118.512 10.6173 118.315 10.8962ZM126.831 22.1915C126.652 22.4633 126.366 22.6533 126.024 22.7093L125.956 22.7209C125.614 22.7769 125.284 22.6951 125.02 22.5303C124.757 22.3635 124.561 22.1142 124.486 21.8077C123.795 18.989 122.331 16.3584 120.292 14.2532C120.071 14.0246 119.964 13.7271 119.965 13.4199C119.967 13.1134 120.078 12.7965 120.312 12.5473L120.359 12.4971C120.592 12.2472 120.911 12.1159 121.24 12.1172C121.57 12.1178 121.909 12.253 122.164 12.5171C123.333 13.7284 124.343 15.0891 125.158 16.5554C125.973 18.0218 126.592 19.5924 126.991 21.2153C127.078 21.5688 127.009 21.9211 126.831 22.1915ZM122.346 34.6518C123.136 33.4257 123.759 32.0978 124.198 30.7139C124.637 29.33 124.888 27.8894 124.947 26.4398C124.961 26.1243 125.103 25.8422 125.329 25.6284C125.554 25.4159 125.863 25.273 126.209 25.2633L126.279 25.2614C126.624 25.2517 126.943 25.3831 127.171 25.6155C127.4 25.8467 127.538 26.179 127.522 26.5416C127.454 28.2076 127.164 29.8671 126.659 31.4622C126.154 33.0567 125.436 34.5861 124.527 35.9977C124.33 36.3062 124.023 36.502 123.701 36.5664C123.379 36.6308 123.04 36.5612 122.761 36.3616L122.704 36.3217C122.425 36.1214 122.254 35.8322 122.191 35.5315C122.129 35.2301 122.175 34.9184 122.346 34.6518ZM110.713 42.614C110.891 42.3609 111.15 42.176 111.465 42.1097C114.359 41.5121 117.082 40.1475 119.284 38.2079C119.523 37.9966 119.829 37.9007 120.142 37.9097C120.456 37.92 120.776 38.0366 121.024 38.2729L121.074 38.3206C121.322 38.5569 121.447 38.8712 121.437 39.1944C121.428 39.5164 121.282 39.8449 121.004 40.0876C119.737 41.2011 118.323 42.1529 116.804 42.9115C115.287 43.6701 113.668 44.2336 112.001 44.5807C111.637 44.656 111.28 44.5781 111.009 44.3971C110.737 44.2149 110.551 43.929 110.502 43.5934L110.492 43.5258C110.444 43.1903 110.537 42.8683 110.713 42.614ZM95.8378 43.7061C95.8378 43.028 96.399 42.4774 97.0916 42.4774H106.639C107.332 42.4774 107.892 43.028 107.892 43.7061V43.7738C107.892 44.4532 107.331 45.0025 106.639 45.0025H97.0916C96.399 45.0025 95.8378 44.4525 95.8378 43.7738V43.7061ZM94.0214 25.7353C94.2599 25.4166 94.6089 25.1706 95.0321 25.0939C95.4277 25.0282 97.1285 24.7372 98.9133 24.43C99.0625 23.4157 99.3825 22.4188 99.8846 21.4831C98.6281 20.2094 97.4261 18.9916 97.1442 18.7095C96.8459 18.4062 96.7118 18.0063 96.7131 17.6096C96.7151 17.2123 96.8498 16.8201 97.1291 16.4988C97.4084 16.1794 97.7823 15.9849 98.1799 15.9224C98.5781 15.858 99.0027 15.925 99.3536 16.1678C99.6848 16.3951 101.097 17.3694 102.577 18.3888C103.438 17.7577 104.39 17.2902 105.386 16.9837C105.415 15.2082 105.442 13.5133 105.45 13.1198C105.455 12.6967 105.651 12.3181 105.934 12.0399C106.222 11.7604 106.6 11.5762 107.031 11.5414C107.458 11.5105 107.859 11.6329 108.188 11.8654C108.514 12.0965 108.766 12.4391 108.841 12.8539C108.909 13.2435 109.206 14.9172 109.519 16.6656C110.55 16.8111 111.566 17.1266 112.517 17.6186C113.815 16.3809 115.055 15.2012 115.344 14.9262C115.653 14.6338 116.062 14.4992 116.466 14.5005C116.87 14.5018 117.27 14.6345 117.596 14.9094C117.923 15.1812 118.12 15.5495 118.185 15.9392C118.25 16.3339 118.18 16.7506 117.932 17.0932C117.699 17.4177 116.709 18.8042 115.666 20.2583C116.31 21.1038 116.786 22.0376 117.095 23.0145C118.905 23.0429 120.632 23.068 121.036 23.0744C121.465 23.0815 121.848 23.2721 122.134 23.5522C122.421 23.8337 122.608 24.2039 122.641 24.6251C122.675 25.0443 122.548 25.4423 122.31 25.7611C122.075 26.0831 121.727 26.331 121.3 26.4057C120.904 26.4746 119.203 26.7644 117.42 27.0709C117.27 28.0865 116.95 29.0795 116.448 30.0152C117.706 31.289 118.907 32.5067 119.189 32.7901C119.488 33.0921 119.623 33.4952 119.623 33.8887C119.621 34.288 119.484 34.6814 119.206 35.0009C118.926 35.3216 118.551 35.5128 118.152 35.5772C117.755 35.639 117.331 35.5734 116.979 35.3293C116.649 35.1026 115.238 34.1309 113.757 33.1089C112.896 33.7419 111.943 34.2088 110.947 34.5127C110.921 36.2901 110.891 37.9844 110.885 38.3805C110.88 38.8029 110.682 39.179 110.399 39.4598C110.112 39.7418 109.733 39.9215 109.304 39.9563C108.877 39.9891 108.474 39.8667 108.146 39.633C107.818 39.4018 107.567 39.0566 107.493 38.6445C107.424 38.2555 107.13 36.5844 106.817 34.8334C105.785 34.6879 104.769 34.3736 103.82 33.8816C102.518 35.1174 101.277 36.2972 100.989 36.5741C100.68 36.8658 100.274 36.9991 99.8675 36.9965C99.4627 36.9978 99.0651 36.8645 98.7365 36.5902C98.4106 36.3159 98.2134 35.9501 98.1484 35.5573C98.0859 35.1664 98.1576 34.751 98.4033 34.4052C98.6347 34.0813 99.6257 32.6935 100.668 31.2407C100.025 30.3932 99.5481 29.4594 99.2386 28.4825C97.4281 28.4548 95.7011 28.4304 95.2963 28.4239C94.8672 28.4162 94.4847 28.2294 94.1975 27.9455C93.913 27.666 93.7276 27.2931 93.6948 26.8726C93.6586 26.4546 93.7868 26.0573 94.0214 25.7353ZM93.4825 9.0222C92.7899 9.0222 92.2293 8.47224 92.2293 7.79349V7.72523C92.2293 7.04648 92.7905 6.49652 93.4825 6.49652H103.03C103.723 6.49652 104.284 7.04648 104.284 7.72523V7.79349C104.284 8.47224 103.722 9.0222 103.03 9.0222H93.4825ZM81.1686 43.7061C81.1686 43.028 81.7299 42.4774 82.4225 42.4774H91.9704C92.6624 42.4774 93.2236 43.028 93.2236 43.7061V43.7738C93.2236 44.4532 92.6624 45.0025 91.9704 45.0025H82.4225C81.7299 45.0025 81.1686 44.4525 81.1686 43.7738V43.7061Z" fill="#00B3B5"/>
<path d="M21.206 21.5836C18.8625 23.5497 18.5852 27.0085 20.5889 29.3107C22.5893 31.6116 26.1136 31.886 28.4584 29.9205C30.8025 27.9564 31.0772 24.4976 29.0774 22.1986C27.0718 19.8951 23.5507 19.6221 21.206 21.5836Z" fill="#00B3B5"/>
<path d="M64 45.0025C63.5584 45.8538 62.6758 46.483 62.0772 46.6839C60.6971 47.1469 57.2694 47.3755 57.1478 49.9804L54.855 67.4148C53.9895 71.2297 48.0698 66.4514 45.6823 67.333C43.7102 68.06 44.4041 71.3102 43.9086 73.8797H9.06531C10.2397 67.2036 10.8041 59.1384 10.8534 58.3573C11.3036 51.3186 7.42504 44.4802 3.22644 37.4621C-1.94673 28.8168 -0.654755 17.258 5.35761 10.3024C11.5467 3.14076 21.6802 -2.18557 35.5193 0.889418C43.2166 2.59982 48.9668 4.33534 52.7212 6.49652H44.6387C43.9461 6.49652 43.3849 7.04648 43.3849 7.72523V7.79349C43.3849 8.47224 43.9461 9.0222 44.6387 9.0222H54.186C54.6802 9.0222 55.106 8.74143 55.3104 8.33508C56.7298 9.61595 57.5861 11.0469 57.87 12.6864L59.5622 28.9037C59.5543 29.2881 59.4873 29.6314 59.3466 29.9489C58.8755 31.0108 57.4567 32.6246 58.3911 34.1695C60.613 37.8434 62.5543 40.038 63.7969 42.4781H55.6994C55.0068 42.4781 54.4462 43.0287 54.4462 43.7068V43.7744C54.4462 44.4538 55.0074 45.0031 55.6994 45.0031H64V45.0025ZM14.6847 10.8962L14.7254 10.9522C14.9219 11.2317 15.213 11.4075 15.5173 11.4764C15.8229 11.5453 16.1416 11.5086 16.4183 11.3482C17.6912 10.6096 19.0607 10.0332 20.4848 9.64235C21.9082 9.25081 23.3842 9.04345 24.8661 9.02413C24.9469 9.02349 25.0258 9.01447 25.1013 8.99773C25.1815 8.98098 25.261 8.95716 25.3353 8.92625C25.4858 8.86378 25.6212 8.77427 25.7342 8.66286C25.9609 8.44004 26.1015 8.13351 26.1015 7.79414V7.72587C26.1015 7.3865 25.9609 7.07932 25.7342 6.85715C25.6205 6.74639 25.4851 6.65623 25.3353 6.59376C25.261 6.56285 25.1828 6.53902 25.1 6.52228C25.0126 6.50683 24.9219 6.49845 24.8306 6.4991C23.1292 6.52164 21.4285 6.76055 19.7889 7.21134C18.1479 7.66148 16.5688 8.32606 15.1033 9.17675C14.7839 9.36222 14.5743 9.65652 14.5013 9.97013C14.4277 10.2844 14.4882 10.6173 14.6847 10.8962ZM6.1692 22.1915C6.34795 22.4633 6.63448 22.6533 6.97554 22.7093L7.04388 22.7209C7.3856 22.7769 7.71616 22.6951 7.98034 22.5303C8.2432 22.3635 8.43903 22.1142 8.51395 21.8077C9.20528 18.989 10.6694 16.3584 12.708 14.2532C12.9294 14.0246 13.0359 13.7271 13.0352 13.4199C13.0326 13.1134 12.9222 12.7965 12.6882 12.5473L12.6409 12.4971C12.4076 12.2472 12.0889 12.1159 11.7597 12.1172C11.4304 12.1178 11.0907 12.253 10.8364 12.5171C9.66661 13.7284 8.6572 15.0891 7.84233 16.5554C7.02745 18.0218 6.40841 19.5924 6.00885 21.2153C5.92211 21.5688 5.99111 21.9211 6.1692 22.1915ZM10.6537 34.6518C9.86376 33.4257 9.24077 32.0978 8.80178 30.7139C8.36346 29.33 8.11242 27.8894 8.05262 26.4398C8.03882 26.1243 7.89687 25.8422 7.67147 25.6284C7.44606 25.4159 7.1372 25.273 6.79087 25.2633L6.72121 25.2614C6.37555 25.2517 6.05748 25.3831 5.82945 25.6155C5.6001 25.8467 5.46209 26.179 5.47787 26.5416C5.54621 28.2076 5.83602 29.8671 6.34072 31.4622C6.84608 33.0567 7.56436 34.5861 8.47255 35.9977C8.67036 36.3062 8.97659 36.502 9.2986 36.5664C9.62126 36.6308 9.96036 36.5612 10.239 36.3616L10.2955 36.3217C10.5755 36.1214 10.7457 35.8322 10.8088 35.5315C10.8705 35.2301 10.8245 34.9184 10.6537 34.6518ZM22.2867 42.614C22.1093 42.3609 21.8497 42.176 21.5349 42.1097C18.6415 41.5121 15.9175 40.1475 13.716 38.2079C13.4768 37.9966 13.1706 37.9007 12.8578 37.9097C12.5443 37.92 12.2243 38.0366 11.9759 38.2729L11.9259 38.3206C11.6782 38.5569 11.5527 38.8712 11.5625 39.1944C11.5724 39.5164 11.7183 39.8449 11.9956 40.0876C13.2626 41.2011 14.6775 42.1529 16.1955 42.9115C17.7129 43.6701 19.3321 44.2336 20.9993 44.5807C21.3628 44.656 21.7203 44.5781 21.991 44.3971C22.2631 44.2149 22.449 43.929 22.4977 43.5934L22.5075 43.5258C22.5555 43.1903 22.4628 42.8683 22.2867 42.614ZM37.1622 43.7061C37.1622 43.028 36.601 42.4774 35.9084 42.4774H26.3611C25.6685 42.4774 25.1079 43.028 25.1079 43.7061V43.7738C25.1079 44.4532 25.6691 45.0025 26.3611 45.0025H35.9084C36.601 45.0025 37.1622 44.4525 37.1622 43.7738V43.7061ZM38.9786 25.7353C38.7401 25.4166 38.3911 25.1706 37.9679 25.0939C37.5723 25.0282 35.8715 24.7372 34.0867 24.43C33.9375 23.4157 33.6175 22.4188 33.1154 21.4831C34.3719 20.2094 35.5739 18.9916 35.8558 18.7095C36.1541 18.4062 36.2882 18.0063 36.2869 17.6096C36.2849 17.2123 36.1502 16.8201 35.8709 16.4988C35.5916 16.1794 35.2177 15.9849 34.8201 15.9224C34.4219 15.858 33.9973 15.925 33.6464 16.1678C33.3152 16.3951 31.903 17.3694 30.423 18.3888C29.5622 17.7577 28.6099 17.2902 27.6137 16.9837C27.5854 15.2082 27.5578 13.5133 27.5499 13.1198C27.5447 12.6967 27.3488 12.3181 27.0656 12.0399C26.7778 11.7604 26.3999 11.5762 25.9695 11.5414C25.5416 11.5105 25.1414 11.6329 24.8115 11.8654C24.4862 12.0965 24.2339 12.4391 24.159 12.8539C24.0906 13.2435 23.7943 14.9172 23.4814 16.6656C22.4497 16.8111 21.4337 17.1266 20.4835 17.6186C19.1849 16.3809 17.9449 15.2012 17.6564 14.9262C17.3468 14.6338 16.9381 14.4992 16.5339 14.5005C16.1298 14.5018 15.7296 14.6345 15.4036 14.9094C15.077 15.1812 14.8799 15.5495 14.8155 15.9392C14.7504 16.3339 14.8201 16.7506 15.0678 17.0932C15.3011 17.4177 16.2914 18.8042 17.3337 20.2583C16.6903 21.1038 16.2139 22.0376 15.905 23.0145C14.0946 23.0429 12.3675 23.068 11.964 23.0744C11.5349 23.0815 11.1518 23.2721 10.8659 23.5522C10.5794 23.8337 10.3921 24.2039 10.3593 24.6251C10.3251 25.0443 10.4519 25.4423 10.6898 25.7611C10.9251 26.0831 11.2734 26.331 11.6999 26.4057C12.0961 26.4746 13.7969 26.7644 15.5797 27.0709C15.7302 28.0865 16.0496 29.0795 16.5523 30.0152C15.2939 31.289 14.0932 32.5067 13.8107 32.7901C13.5123 33.0921 13.3769 33.4952 13.3769 33.8887C13.3789 34.288 13.5156 34.6814 13.7936 35.0009C14.0735 35.3216 14.4488 35.5128 14.8477 35.5772C15.2446 35.639 15.6691 35.5734 16.0207 35.3293C16.3512 35.1026 17.7615 34.1309 19.2434 33.1089C20.1036 33.7419 21.0572 34.2088 22.0528 34.5127C22.0791 36.2901 22.1086 37.9844 22.1145 38.3805C22.1205 38.8029 22.3183 39.179 22.6008 39.4598C22.888 39.7418 23.2665 39.9215 23.6963 39.9563C24.1235 39.9891 24.5257 39.8667 24.8543 39.633C25.1815 39.4018 25.4332 39.0566 25.5075 38.6445C25.5758 38.2555 25.8702 36.5844 26.183 34.8334C27.2154 34.6879 28.2307 34.3736 29.1803 33.8816C30.4815 35.1174 31.7229 36.2972 32.0114 36.5741C32.3196 36.8658 32.7264 36.9991 33.1325 36.9965C33.5373 36.9978 33.9349 36.8645 34.2635 36.5902C34.5894 36.3159 34.7866 35.9501 34.8516 35.5573C34.9141 35.1664 34.8424 34.751 34.5967 34.4052C34.3653 34.0813 33.3743 32.6935 32.3321 31.2407C32.9754 30.3932 33.4519 29.4594 33.7614 28.4825C35.5719 28.4548 37.2989 28.4304 37.7037 28.4239C38.1328 28.4162 38.5153 28.2294 38.8025 27.9455C39.087 27.666 39.2724 27.2931 39.3052 26.8726C39.3414 26.4546 39.2132 26.0573 38.9786 25.7353ZM39.5175 9.0222C40.2101 9.0222 40.7707 8.47224 40.7707 7.79349V7.72523C40.7707 7.04648 40.2095 6.49652 39.5175 6.49652H29.9703C29.2769 6.49652 28.7164 7.04648 28.7164 7.72523V7.79349C28.7164 8.47224 29.2776 9.0222 29.9703 9.0222H39.5175ZM51.8314 43.7061C51.8314 43.028 51.2701 42.4774 50.5775 42.4774H41.0296C40.3376 42.4774 39.7764 43.028 39.7764 43.7061V43.7738C39.7764 44.4532 40.3376 45.0025 41.0296 45.0025H50.5775C51.2701 45.0025 51.8314 44.4525 51.8314 43.7738V43.7061Z" fill="#00B3B5"/>
</svg>
