<svg width="50" height="50" viewBox="0 0 50 50" fill="none" xmlns="http://www.w3.org/2000/svg">
<g clip-path="url(#clip0_1378_1052)">
<path d="M50 25C50 11.1929 38.8071 0 25 0C11.1929 0 0 11.1929 0 25C0 38.8071 11.1929 50 25 50C38.8071 50 50 38.8071 50 25Z" fill="url(#paint0_linear_1378_1052)"/>
<path d="M28.6174 25.0006C28.6174 25.7163 28.4051 26.4158 28.0075 27.0109C27.6099 27.6059 27.0448 28.0697 26.3836 28.3437C25.7225 28.6175 24.9949 28.6891 24.293 28.5495C23.5911 28.41 22.9464 28.0653 22.4403 27.5592C21.9342 27.0532 21.5897 26.4084 21.45 25.7066C21.3104 25.0046 21.3821 24.2771 21.656 23.6159C21.9298 22.9547 22.3936 22.3896 22.9887 21.992C23.5837 21.5944 24.2833 21.3822 24.9989 21.3822C25.9577 21.3852 26.8763 21.7674 27.5542 22.4453C28.2322 23.1232 28.6143 24.0419 28.6174 25.0006ZM36.3065 20.0253V29.9759C36.3065 31.6554 35.6393 33.2661 34.4518 34.4536C33.2643 35.6411 31.6537 36.3082 29.9742 36.3082H20.0236C18.3442 36.3082 16.7336 35.6411 15.5461 34.4536C14.3585 33.2661 13.6914 31.6554 13.6914 29.9759V20.0253C13.6914 18.3459 14.3585 16.7353 15.5461 15.5478C16.7336 14.3602 18.3442 13.6931 20.0236 13.6931H29.9742C31.6537 13.6931 33.2643 14.3602 34.4518 15.5478C35.6393 16.7353 36.3065 18.3459 36.3065 20.0253ZM30.4265 25.0006C30.4265 23.9271 30.1083 22.8778 29.5118 21.9852C28.9154 21.0927 28.0677 20.3969 27.076 19.9862C26.0842 19.5754 24.9929 19.4679 23.94 19.6772C22.8872 19.8867 21.9201 20.4037 21.161 21.1627C20.4019 21.9218 19.885 22.8889 19.6755 23.9417C19.4662 24.9946 19.5737 26.0859 19.9844 27.0777C20.3952 28.0694 21.091 28.9171 21.9835 29.5135C22.8761 30.11 23.9254 30.4282 24.9989 30.4282C26.4385 30.4282 27.819 29.8564 28.8368 28.8385C29.8547 27.8207 30.4265 26.4402 30.4265 25.0006ZM32.2358 19.1207C32.2358 18.8524 32.1562 18.59 32.0071 18.3668C31.858 18.1437 31.6461 17.9697 31.3981 17.867C31.1502 17.7644 30.8774 17.7375 30.6141 17.7899C30.351 17.8422 30.1091 17.9715 29.9193 18.1613C29.7297 18.3509 29.6004 18.5928 29.548 18.8559C29.4956 19.1192 29.5225 19.392 29.6252 19.64C29.7279 19.8879 29.9018 20.0999 30.125 20.2489C30.3481 20.398 30.6105 20.4776 30.8789 20.4776C31.2387 20.4776 31.5839 20.3346 31.8384 20.0802C32.0928 19.8257 32.2358 19.4806 32.2358 19.1207Z" fill="white"/>
</g>
<defs>
<linearGradient id="paint0_linear_1378_1052" x1="0" y1="0" x2="50" y2="49.2187" gradientUnits="userSpaceOnUse">
<stop stop-color="#330F99"/>
<stop offset="1" stop-color="#C318C7"/>
</linearGradient>
<clipPath id="clip0_1378_1052">
<rect width="50" height="50" fill="white"/>
</clipPath>
</defs>
</svg>
