<svg width="16" height="21" viewBox="0 0 16 21" fill="none" xmlns="http://www.w3.org/2000/svg">
<path d="M1 8.4231C1 13.2749 5.24448 17.2872 7.12319 18.8255L7.12392 18.8261C7.39332 19.0466 7.52806 19.157 7.72885 19.2135C7.88505 19.2575 8.1148 19.2575 8.271 19.2135C8.47197 19.1569 8.60707 19.0464 8.87695 18.8255C10.7557 17.2872 15 13.2749 15 8.42306C15 6.58695 14.2625 4.82605 12.9497 3.52772C11.637 2.22939 9.85656 1.5 8.00004 1.5C6.14353 1.5 4.36301 2.22938 3.05025 3.52771C1.7375 4.82604 1 6.58698 1 8.4231Z" stroke="#00B3B5" stroke-width="2" stroke-linecap="round" stroke-linejoin="round"/>
</svg>
