<svg 
 viewBox="0 0 30 30" fill="none" xmlns="http://www.w3.org/2000/svg">
<path d="M8.23505 7.22262C9.66213 5.79042 11.457 4.78017 13.4218 4.30327C15.3866 3.82637 17.4449 3.90135 19.3697 4.51995C19.7905 4.65433 20.2475 4.61603 20.6401 4.41349C21.0326 4.21095 21.3287 3.86076 21.4631 3.43995C21.5974 3.01914 21.5591 2.56218 21.3566 2.16961C21.1541 1.77703 20.8039 1.48099 20.3831 1.34662C17.7887 0.516526 15.0115 0.442812 12.3768 1.13411C9.74202 1.8254 7.35877 3.25309 5.50614 5.24997C3.6535 7.24685 2.40817 9.73025 1.91599 12.4093C1.4238 15.0884 1.70514 17.8523 2.72705 20.3773C2.7556 20.4482 2.75872 20.5268 2.73587 20.5997C2.71302 20.6726 2.66562 20.7354 2.60172 20.7773L0.735054 22.0066C0.514204 22.1514 0.34133 22.3585 0.238353 22.6017C0.135377 22.8449 0.106937 23.1132 0.15664 23.3726C0.206343 23.632 0.331951 23.8707 0.517534 24.0586C0.703118 24.2465 0.940317 24.375 1.19905 24.4279L7.07506 25.6386C7.16276 25.657 7.25211 25.6664 7.34172 25.6666C7.64887 25.6664 7.94651 25.5601 8.18435 25.3657C8.42218 25.1714 8.58563 24.9009 8.64705 24.6L9.86572 18.7253C9.91885 18.4671 9.89423 18.1989 9.79499 17.9547C9.69574 17.7104 9.52633 17.5011 9.30815 17.3531C9.08996 17.2051 8.83281 17.1252 8.56919 17.1233C8.30557 17.1214 8.04731 17.1977 7.82705 17.3426L6.04172 18.5173C5.99872 18.5457 5.94971 18.5637 5.89857 18.57C5.84742 18.5762 5.79552 18.5705 5.74694 18.5533C5.69836 18.5362 5.65442 18.5079 5.61858 18.4709C5.58275 18.4339 5.55598 18.3891 5.54039 18.34C4.92968 16.4177 4.85798 14.3647 5.33311 12.4045C5.80823 10.4443 6.81197 8.65194 8.23505 7.22262ZM31.8431 6.77595C31.7988 6.51613 31.6786 6.27525 31.4975 6.08374C31.3164 5.89223 31.0827 5.75867 30.8257 5.69995L24.9751 4.36662C24.8041 4.32714 24.6271 4.32178 24.4542 4.35084C24.2812 4.37989 24.1156 4.44279 23.967 4.53593C23.8184 4.62908 23.6896 4.75063 23.588 4.89363C23.4864 5.03663 23.4141 5.19827 23.3751 5.36928L22.0417 11.2186C21.9831 11.4757 22.002 11.7444 22.0961 11.9907C22.1902 12.237 22.3552 12.4499 22.5703 12.6025C22.7853 12.755 23.0408 12.8404 23.3044 12.8478C23.5679 12.8552 23.8278 12.7842 24.0511 12.6439L25.9751 11.4359C26.0174 11.4079 26.0657 11.3901 26.1162 11.3839C26.1666 11.3776 26.2178 11.3831 26.2657 11.4C26.3136 11.4175 26.3568 11.4457 26.3922 11.4824C26.4275 11.5192 26.454 11.5635 26.4697 11.6119C27.0909 13.5283 27.1738 15.5785 26.7094 17.5388C26.245 19.499 25.2511 21.2941 23.8362 22.7281C22.4213 24.1621 20.6397 25.18 18.6859 25.6707C16.732 26.1614 14.6809 26.106 12.7564 25.5106C12.5455 25.4394 12.3226 25.4112 12.1006 25.4276C11.8787 25.444 11.6623 25.5047 11.4642 25.606C11.266 25.7074 11.0902 25.8474 10.9471 26.0178C10.804 26.1882 10.6964 26.3856 10.6308 26.5982C10.5652 26.8109 10.5428 27.0345 10.565 27.256C10.5872 27.4774 10.6535 27.6921 10.76 27.8875C10.8665 28.0829 11.0111 28.255 11.1852 28.3936C11.3593 28.5322 11.5594 28.6346 11.7737 28.6946C14.3607 29.4947 17.1215 29.5456 19.7362 28.8414C22.351 28.1372 24.7127 26.7067 26.548 24.7156C28.3833 22.7245 29.617 20.2542 30.1062 17.5908C30.5955 14.9275 30.3202 12.18 29.3124 9.66662C29.2846 9.59485 29.2827 9.51562 29.307 9.44261C29.3314 9.36959 29.3804 9.30735 29.4457 9.26662L31.2404 8.13862C31.4651 7.99727 31.6425 7.79208 31.7498 7.54932C31.8572 7.30656 31.8897 7.03727 31.8431 6.77595Z" fill="#00B3B5"/>
</svg>
